<svg width="5172" height="723" viewBox="0 0 5172 723" fill="none" xmlns="http://www.w3.org/2000/svg">
<path d="M1022.19 11L849.188 716H608.188L511.188 284L412.188 716H171.188L0.187501 11H212.188L294.188 493L405.188 11H620.188L728.188 489L810.188 11H1022.19ZM1716.36 11V716H1520.36V433H1281.36V716H1085.36V11H1281.36V276H1520.36V11H1716.36ZM2254.52 601H2004.52L1966.52 716H1760.52L2017.52 11H2243.52L2499.52 716H2292.52L2254.52 601ZM2205.52 451L2129.52 223L2054.52 451H2205.52ZM3074.41 11V167H2886.41V716H2690.41V167H2504.41V11H3074.41ZM3494.33 11V716H3298.33V11H3494.33ZM4036.35 11C4110.35 11 4175.02 26 4230.35 56C4286.35 85.3333 4329.35 126.667 4359.35 180C4389.35 233.333 4404.35 294.333 4404.35 363C4404.35 431 4389.02 491.667 4358.35 545C4328.35 598.333 4285.35 640.333 4229.35 671C4174.02 701 4109.68 716 4036.35 716H3757.35V11H4036.35ZM4021.35 543C4078.68 543 4123.68 527.333 4156.35 496C4189.02 464.667 4205.35 420.333 4205.35 363C4205.35 305 4189.02 260.333 4156.35 229C4123.68 197 4078.68 181 4021.35 181H3953.35V543H4021.35ZM4810.7 723C4744.7 723 4684.04 707.667 4628.7 677C4573.37 645.667 4529.37 602.667 4496.7 548C4464.7 492.667 4448.7 430.333 4448.7 361C4448.7 291.667 4464.7 229.667 4496.7 175C4529.37 119.667 4573.37 76.6667 4628.7 46C4684.04 15.3333 4744.7 -2.0504e-05 4810.7 -2.0504e-05C4877.37 -2.0504e-05 4938.04 15.3333 4992.7 46C5048.04 76.6667 5091.7 119.667 5123.7 175C5155.7 229.667 5171.7 291.667 5171.7 361C5171.7 430.333 5155.7 492.667 5123.7 548C5091.7 602.667 5048.04 645.667 4992.7 677C4937.37 707.667 4876.7 723 4810.7 723ZM4810.7 541C4860.7 541 4900.04 524.667 4928.7 492C4958.04 459.333 4972.7 415.667 4972.7 361C4972.7 305 4958.04 261 4928.7 229C4900.04 196.333 4860.7 180 4810.7 180C4760.04 180 4720.37 196.333 4691.7 229C4663.04 261 4648.7 305 4648.7 361C4648.7 416.333 4663.04 460.333 4691.7 493C4720.37 525 4760.04 541 4810.7 541Z" fill="white"/>
</svg>
